PathFileType	4	(X/Y/Z)	Patient4_TMGait_0pt3_01_right_19.trc.trc
DataRate	CameraRate	NumFrames	NumMarkers	Units	OrigDataRate	OrigDataStartFrame	OrigNumFrames
51.851851851852	51.851851851852	4	33	mm	51.851851851852	89	       141
Frame#	Time	Sacral			L.Shoulder			Chest			R.Shoulder			Neck			R.ASIS			L.ASIS			R.Thigh.Superior			R.Thigh.Lateral			R.Thigh.Inferior			R.Patella			L.Thigh.Superior			L.Thigh.Lateral			L.Thigh.Inferior			L.Patella			L.Shank.Superior			L.Shank.Lateral			L.Shank.Inferior			R.Shank.Superior			R.Shank.Lateral			R.Shank.Inferior			R.Heel			R.Midfoot.Superior			R.Midfoot.Lateral			R.Toe			L.Heel			L.Midfoot.Lateral			L.Midfoot.Superior			L.Toe			L.Elbow			L.Wrist			R.Elbow			R.Wrist			
		X1	Y1	Z1	X2	Y2	Z2	X3	Y3	Z3	X4	Y4	Z4	X5	Y5	Z5	X6	Y6	Z6	X7	Y7	Z7	X8	Y8	Z8	X9	Y9	Z9	X10	Y10	Z10	X11	Y11	Z11	X12	Y12	Z12	X13	Y13	Z13	X14	Y14	Z14	X15	Y15	Z15	X16	Y16	Z16	X17	Y17	Z17	X18	Y18	Z18	X19	Y19	Z19	X20	Y20	Z20	X21	Y21	Z21	X22	Y22	Z22	X23	Y23	Z23	X24	Y24	Z24	X25	Y25	Z25	X26	Y26	Z26	X27	Y27	Z27	X28	Y28	Z28	X29	Y29	Z29	X30	Y30	Z30	X31	Y31	Z31	X32	Y32	Z32	X33	Y33	Z33	

89	36.227142857143	738.466129374719	1007.113292883889	531.847253207778	891.251688137659	1423.637560017024	314.740031310048	1018.311284049966	1359.609181396640	460.443952918450	962.487924381520	1444.801108086130	639.138008306118	899.657434795441	1490.926783913956	467.649429633157	976.587022658775	936.589880834145	625.124551525626	936.055400622394	956.439107570618	353.384642760454	972.814669986901	722.875056570795	605.457749648468	871.812487429297	628.268292316645	672.388305822382	934.185752179245	560.171001121954	594.696937265532	913.594697528789	465.666406583783	608.280572689934	1007.348155722640	759.936153191067	391.471853884645	936.498905232556	632.603435326090	330.271326653050	1032.147689186260	566.576497608435	393.094479337570	1041.754660063760	494.682749057119	400.472006608453	1014.066024595326	420.277691304900	392.972831255852	926.591983061790	306.261454855196	338.976764432563	976.042281960529	193.696964515622	407.876782098418	853.558287758949	391.447520054711	616.873435737645	749.014511904326	320.454908992910	679.972678868358	759.957498472872	213.454626271927	623.456030304879	581.946503009462	84.021430381261	592.198973861097	758.286338811485	103.219282044540	638.040432062523	658.039816354219	58.006959985812	669.542780808446	862.464240966635	36.439469953504	670.549500753070	846.447661714124	38.262054780545	442.595364286707	922.372109646061	36.556776472466	363.887348807974	1005.766172313658	96.422231331338	393.650864579702	1134.115864096778	43.118282687898	366.588927344437	775.426628471346	1086.029009991262	227.696044902116	886.008642369722	848.647774990296	232.079536736661	1131.068499566321	1155.014939956698	757.714082746179	1386.428825311504	1168.236206267947	725.180308694168	
90	36.246428571429	738.645615573023	1007.981914378996	525.842614598161	893.297194525813	1425.116674071093	310.707619620430	1018.749856713858	1361.033755274119	457.744209010975	960.839034667879	1446.036289763435	635.864234783848	899.802612787380	1492.211272040549	463.776902679251	975.818131457656	937.832490534802	621.092246911518	937.650927098672	957.287744363816	349.111504759988	973.834851499291	724.270574958779	602.515538540188	873.479549551900	629.321069934877	669.559826410581	937.268449921146	561.045617506847	592.745176420450	917.150047816351	465.453316578666	607.643078491803	1006.958905198740	759.243274732653	387.112936219201	934.274683462446	632.468452668385	326.977455882309	1029.001577647815	565.636832788960	390.054118306960	1037.760158795490	493.915426573319	398.015398430862	1009.810386115234	419.702030903579	390.861014721609	921.887213618512	305.755809924994	337.452762814448	970.770678959519	193.419806291674	407.110523029727	855.439198156196	392.251331286881	616.113662261754	749.151090635810	323.766163244523	678.890748564617	758.828743768658	215.930889750591	623.490737558849	578.442761076912	90.443212580423	592.493456655315	755.091823273562	104.115464051909	638.400622864070	653.656864473523	61.865942816879	669.716760128584	856.768894999152	36.020803258458	670.508490264158	840.637235436918	38.206272349101	442.583748008968	916.541744420695	36.475033639447	363.837245753867	999.964913691100	96.320264603571	393.539867170228	1128.340438442789	42.910503813367	366.550017327794	784.146900265616	1086.281119478990	218.436613634937	901.393503711890	852.204006656998	222.554923742637	1125.561887540558	1153.351871071876	755.300317612965	1382.343349841432	1155.554423415862	729.154390095829	
91	36.265714285714	738.712976539195	1008.642848341364	519.843423273383	895.253821289830	1426.483328548254	306.809637413032	1018.962274415685	1362.360359333988	455.257202478246	958.847194068949	1447.148301279583	632.751575263240	899.776146811685	1493.376004201057	460.059636458801	974.868159856003	939.005064984574	617.152848648700	939.195143902803	958.061351555260	344.956741771928	975.438901698146	725.726416712433	599.580008382482	876.119852909028	630.129962936429	666.691503340222	941.544082524094	561.899334079010	590.690066422966	922.062881487303	465.058855523444	606.934339372909	1006.531342922061	758.473506398767	382.833440045996	932.083710632961	632.300746359368	323.698999773073	1025.867965566839	564.679353991834	387.049340076999	1033.760478494527	493.129535124850	395.577412815689	1005.565309005105	419.101481806429	388.755906629357	917.191936382048	305.232630052141	335.893507437102	965.458208195562	193.117509333546	406.328701103355	858.533226403410	392.926694448788	615.241383324096	750.388586337180	327.278585733265	677.650571149040	758.480247586540	218.643869998543	623.373947871043	575.535871571088	97.854026703294	592.549369852308	752.279808313429	105.319105145788	638.630829498948	649.594145394777	66.572605105749	669.732361798278	851.018353308615	35.531241621907	670.500000083352	834.806043962293	38.149450864899	442.558815045590	910.691620412579	36.388414521035	363.771735804215	994.132597969347	96.221282184762	393.415450542800	1122.543828366558	42.741118204735	366.509232277000	793.765683733582	1086.418740669952	209.035540493587	916.518173265312	855.321564975469	213.245934949321	1118.808112438588	1151.082674948429	753.245896731039	1376.332252863881	1141.271586665012	733.607056749678	
92	36.285000000000	738.645412466119	1009.060273738559	513.864720192892	897.116347386323	1427.702076785481	303.068999639759	1018.937704990198	1363.542879424073	452.999737345494	956.502961715548	1448.080106256139	629.817508708756	899.577970619897	1494.372714712431	456.523067035745	973.742850232000	940.064193075352	613.339728721123	940.681564723243	958.738844370389	340.954259177477	977.670859540777	727.246174734182	596.638872134991	879.818667128149	630.690242072506	663.784039527596	947.076091436536	562.750108515081	588.509004289052	928.406234068903	464.522495736970	606.103685575222	1006.107081390220	757.631535838234	378.713937759016	930.037756627806	632.079977114535	320.477820670886	1022.865640123240	563.702891128098	384.149358721623	1029.898000877381	492.308630914957	393.217424535178	1001.445504508783	418.453723542819	386.710451509477	912.605433686185	304.696417571357	334.326698107175	960.150823090673	192.778746854536	405.558905660167	862.927990234187	393.493591864054	614.214163795052	752.825306889068	331.028668406306	676.201561727475	758.992385744720	221.658194315522	623.046988244924	573.360615535473	106.370519017167	592.251353724026	749.921239550295	106.971437065240	638.687527172024	645.945145645842	72.278300589417	669.508956649070	845.262874157140	34.985202703132	670.540264865751	828.962747487052	38.098188730534	442.518036291773	904.832966399130	36.303615630094	363.693888788881	988.283257439238	96.128240993218	393.285334769699	1116.737934424328	42.598019329349	366.470278860262	804.276532758958	1086.457384496980	199.658298527090	931.473508804721	857.957656902819	204.300779578822	1110.770703104787	1148.198219494677	751.529119021308	1368.210596058866	1125.391781261410	738.375418137278	
